<?xml version="1.0" encoding="UTF-8" standalone="no"?>
<svg
   width="16"
   height="16"
   fill="currentColor"
   class="bi bi-x-circle"
   viewBox="0 0 16 16"
   version="1.1"
   id="svg6"
   sodipodi:docname="cancel.svg"
   inkscape:version="1.1.2 (0a00cf5339, 2022-02-04)"
   xmlns:inkscape="http://www.inkscape.org/namespaces/inkscape"
   xmlns:sodipodi="http://sodipodi.sourceforge.net/DTD/sodipodi-0.dtd"
   xmlns="http://www.w3.org/2000/svg"
   xmlns:svg="http://www.w3.org/2000/svg">
  <defs
     id="defs10" />
  <sodipodi:namedview
     id="namedview8"
     pagecolor="#ffffff"
     bordercolor="#666666"
     borderopacity="1.0"
     inkscape:pageshadow="2"
     inkscape:pageopacity="0.0"
     inkscape:pagecheckerboard="0"
     showgrid="false"
     inkscape:zoom="22.46875"
     inkscape:cx="-4.2058414"
     inkscape:cy="12.929068"
     inkscape:window-width="1918"
     inkscape:window-height="1158"
     inkscape:window-x="0"
     inkscape:window-y="20"
     inkscape:window-maximized="1"
     inkscape:current-layer="svg6" />
  <path
     d="M 8,14.4 C 4.1340041,14.4 1.6,11.865993 1.6,8 1.6,4.1340068 4.1340041,1.4 8,1.4 c 3.865996,0 6.5,2.7340068 6.5,6.6 0,3.865993 -2.634004,6.4 -6.5,6.4 M 8,16 c 4.418281,0 7.999997,-3.581722 7.999997,-8 C 15.999997,3.5817221 12.418281,0 8,0 3.581719,0 3.4729399e-6,3.5817221 3.4729399e-6,8 3.4729399e-6,12.418278 3.581719,16 8,16"
     id="path2"
     sodipodi:nodetypes="csssccsssc"
     style="opacity:1" />
  <path
     d="m 12.400862,2.5353863 c 0.472,-0.4719998 1.437437,0.6437442 0.965437,1.115744 L 8.4454476,8.5952542 3.4587203,13.464404 C 2.9867205,13.936404 2.0212843,12.82066 2.4932841,12.34866 L 7.1275114,7.8340102"
     id="path4"
     sodipodi:nodetypes="cccccc" />
</svg>
