<?xml version="1.0" encoding="UTF-8" standalone="no"?>
<svg
   width="16"
   height="16"
   fill="currentColor"
   class="bi bi-sort-down"
   viewBox="0 0 16 16"
   version="1.1"
   id="svg4"
   sodipodi:docname="sort-down.svg"
   inkscape:version="1.1.2 (0a00cf5339, 2022-02-04)"
   xmlns:inkscape="http://www.inkscape.org/namespaces/inkscape"
   xmlns:sodipodi="http://sodipodi.sourceforge.net/DTD/sodipodi-0.dtd"
   xmlns="http://www.w3.org/2000/svg"
   xmlns:svg="http://www.w3.org/2000/svg">
  <defs
     id="defs8" />
  <sodipodi:namedview
     id="namedview6"
     pagecolor="#ffffff"
     bordercolor="#666666"
     borderopacity="1.0"
     inkscape:pageshadow="2"
     inkscape:pageopacity="0.0"
     inkscape:pagecheckerboard="0"
     showgrid="true"
     inkscape:zoom="44.9375"
     inkscape:cx="6.3532684"
     inkscape:cy="7.3769124"
     inkscape:window-width="960"
     inkscape:window-height="1160"
     inkscape:window-x="960"
     inkscape:window-y="20"
     inkscape:window-maximized="0"
     inkscape:current-layer="layer1">
    <inkscape:grid
       type="xygrid"
       id="grid2518" />
  </sodipodi:namedview>
  <g
     id="g965">
    <g
       id="g1500" />
    <path
       d="M 7,3.5 C 7,3.2238576 7.2238576,3 7.5,3 h 7 c 0.666666,0 0.666666,1 0,1 h -7 C 7.2238576,4 7,3.7761424 7,3.5 M 7.5,6 c -0.6666664,0 -0.6666664,1 0,1 h 5 c 0.666666,0 0.666666,-1 0,-1 z m 0,3 c -0.6666664,0 -0.6666664,1 0,1 h 3 c 0.666666,0 0.666666,-1 0,-1 z m 0,3 c -0.6666664,0 -0.6666664,1 0,1 h 1 c 0.6666664,0 0.6666664,-1 0,-1 z"
       id="path2"
       sodipodi:nodetypes="csssscsssssssssssssss" />
  </g>
  <g
     inkscape:groupmode="layer"
     id="layer1"
     inkscape:label="Layer 1">
    <path
       d="m 3.4657818,3.4736303 c 0,-0.6666664 -0.9999747,-0.6666664 -0.9999747,0 V 12.26663 l -1.1457754,-1.147 c -0.47197023,-0.472 -1.17978618,0.236 -0.70781593,0.708 l 1.99994943,1.999 0.007,0.007 c 0.1953839,0.190538 0.5079325,0.18786 0.7000101,-0.006 l 1.9999495,-2 c 0.4711339,-0.471333 -0.2349815,-1.179333 -0.7080947,-0.708 l -1.1457754,1.147 z"
       id="path2380"
       style="stroke-width:0.999954" />
  </g>
</svg>
